<svg xmlns="http://www.w3.org/2000/svg" viewBox="0 0 48 48"><g><path fill="#4285F4" d="M44.5 20H24v8.5h11.7C34.6 33.2 29.8 36 24 36c-6.6 0-12-5.4-12-12s5.4-12 12-12c2.8 0 5.4.9 7.5 2.7l6.3-6.3C34.2 6.1 29.4 4 24 4 12.9 4 4 12.9 4 24s8.9 20 20 20c11 0 19.7-8 19.7-20 0-1.3-.2-2.7-.5-4z"/><path fill="#34A853" d="M6.3 14.7l6.6 4.8C14.5 16.1 18.9 13 24 13c2.8 0 5.4.9 7.5 2.7l6.3-6.3C34.2 6.1 29.4 4 24 4c-7.2 0-13.4 2.9-18 7.6z"/><path fill="#FBBC05" d="M24 44c5.8 0 10.6-1.9 14.2-5.1l-6.6-5.4C29.6 35.6 27 36.5 24 36.5c-5.8 0-10.6-3.9-12.3-9.1l-6.6 5.1C8.1 41.1 15.5 44 24 44z"/><path fill="#EA4335" d="M44.5 20H24v8.5h11.7C34.6 33.2 29.8 36 24 36c-6.6 0-12-5.4-12-12s5.4-12 12-12c2.8 0 5.4.9 7.5 2.7l6.3-6.3C34.2 6.1 29.4 4 24 4 12.9 4 4 12.9 4 24s8.9 20 20 20c11 0 19.7-8 19.7-20 0-1.3-.2-2.7-.5-4z"/></g></svg>
